# xmcd CD database file
#
# Track frame offsets:
#	150
#	1653
#	19968
#	39473
#	57003
#	81803
#	93303
#	114700
#	129240
#	146228
#	165060
#	174718
#	190460
#	210728
#
# Disc length: 2958 seconds
#
# Revision: 0
# Processed by: cddbd v1.4PL0 Copyright (c) Steve Scherf et al.
# Submitted via: Feurio! 1.66 - http://www.feurio.com
#
DISCID=b20b8c0e
DTITLE=Tino Eisbrenner - Stark sein
DYEAR=1999
DGENRE=Pop
TTITLE0=Intro
TTITLE1=Wir folgen dem Wind
TTITLE2=Sha la la
TTITLE3=Du schmeißt Dich auf mein Leben
TTITLE4=Federleicht
TTITLE5=Fuß ohne Schuh
TTITLE6=Schnee soll fallen
TTITLE7=Ewige Jagdgründe
TTITLE8=Wohin
TTITLE9=Lachen
TTITLE10=Nordwind
TTITLE11=Himmelblau
TTITLE12=Gras
TTITLE13=Bonus Track
EXTD=
EXTT0=
EXTT1=
EXTT2=
EXTT3=
EXTT4=
EXTT5=
EXTT6=
EXTT7=
EXTT8=
EXTT9=
EXTT10=
EXTT11=
EXTT12=
EXTT13=
PLAYORDER=
